<svg xmlns="http://www.w3.org/2000/svg" viewBox="0 0 271.15 267.63"><defs><style>.cls-1{fill:none;stroke:#fff;stroke-linecap:round;stroke-linejoin:round;stroke-width:2.25px;}</style></defs><g id="Layer_2" data-name="Layer 2"><g id="Layer_3" data-name="Layer 3"><path class="cls-1" d="M11.53,139.4A10.34,10.34,0,0,1,1.12,149.67"/><path class="cls-1" d="M21.79,149.83A10.35,10.35,0,0,1,11.53,139.4"/><path class="cls-1" d="M1.12,149.67A10.36,10.36,0,0,1,11.39,160.1"/><path class="cls-1" d="M11.39,160.1a10.33,10.33,0,0,1,10.4-10.27"/><path class="cls-1" d="M194.25,62.4a10.34,10.34,0,0,1-10.4,10.28"/><path class="cls-1" d="M204.51,72.83A10.34,10.34,0,0,1,194.25,62.4"/><path class="cls-1" d="M183.85,72.68a10.35,10.35,0,0,1,10.26,10.43"/><path class="cls-1" d="M194.11,83.11a10.33,10.33,0,0,1,10.4-10.28"/><path class="cls-1" d="M227.61,84.79a10.33,10.33,0,0,1-10.4,10.28"/><path class="cls-1" d="M237.87,95.22a10.35,10.35,0,0,1-10.26-10.43"/><path class="cls-1" d="M217.21,95.07a10.34,10.34,0,0,1,10.26,10.43"/><path class="cls-1" d="M227.47,105.5a10.34,10.34,0,0,1,10.4-10.28"/><path class="cls-1" d="M212.4,220.31A10.32,10.32,0,0,1,202,230.58"/><path class="cls-1" d="M222.66,230.74a10.35,10.35,0,0,1-10.26-10.43"/><path class="cls-1" d="M202,230.58A10.36,10.36,0,0,1,212.26,241"/><path class="cls-1" d="M212.26,241a10.34,10.34,0,0,1,10.4-10.28"/><line class="cls-1" x1="220.44" y1="50.13" x2="203.96" y2="43.74"/><line class="cls-1" x1="203.96" y1="43.74" x2="210.33" y2="27.23"/><path class="cls-1" d="M270,25.91C247.1,24.53,223.1,30.53,204,43.74"/><line class="cls-1" x1="69.03" y1="48.64" x2="69.36" y2="49.85"/><line class="cls-1" x1="60.19" y1="15.96" x2="67.3" y2="42.39"/><line class="cls-1" x1="185.73" y1="33.23" x2="185.33" y2="34.42"/><line class="cls-1" x1="196.42" y1="1.13" x2="187.74" y2="27.06"/><path class="cls-1" d="M39.74,46.2C29.88,39,40.8,26.37,48.89,34.64A8.9,8.9,0,0,1,46.3,49.19s4.19,4.7,6.57,6.89"/><line class="cls-1" x1="57.76" y1="61.02" x2="58.49" y2="61.69"/><line class="cls-1" x1="19.56" y1="71.55" x2="31.43" y2="81.43"/><line class="cls-1" x1="30.19" y1="97.13" x2="17.69" y2="92.57"/><line class="cls-1" x1="169.31" y1="250.04" x2="175.18" y2="266.5"/><line class="cls-1" x1="180.64" y1="255.28" x2="186.28" y2="262"/><line class="cls-1" x1="3.74" y1="79.81" x2="10.07" y2="82.39"/></g></g></svg>