<svg class="icon icon-save-star" width="46" height="46" viewBox="0 0 46 46" fill="none" xmlns="http://www.w3.org/2000/svg">
  <g clip-path="url(#clip0_629_24589)">
  <path d="M17.6065 5.81312L20.3829 1.44586C20.665 1.00231 21.0523 0.637548 21.5095 0.384952C21.9667 0.132356 22.4791 0 22.9999 0C23.5206 0 24.033 0.132356 24.4902 0.384952C24.9474 0.637548 25.3347 1.00231 25.6168 1.44586L28.3932 5.81312C28.5776 6.10237 28.8502 6.32265 29.1695 6.44045C29.4889 6.55824 29.8374 6.5671 30.1622 6.46568L35.0593 4.92829C35.5567 4.77231 36.0847 4.74523 36.5951 4.84955C37.1056 4.95386 37.582 5.18623 37.9809 5.52539C38.3797 5.86454 38.6882 6.29965 38.8782 6.79089C39.0682 7.28213 39.1335 7.8138 39.0683 8.33725L38.425 13.4906C38.3829 13.8322 38.452 14.1785 38.6218 14.4767C38.7917 14.7749 39.053 15.0087 39.3661 15.1425L44.0924 17.1547C44.5724 17.3592 44.9941 17.6825 45.319 18.0949C45.6438 18.5072 45.8614 18.9956 45.9517 19.5152C46.0421 20.0349 46.0024 20.5692 45.8362 21.0692C45.6701 21.5693 45.3828 22.0191 45.0007 22.3776L41.4922 25.668C41.1696 25.9706 40.9535 26.3718 40.8771 26.8105C40.8006 27.2492 40.868 27.7011 41.0689 28.0974L43.2519 32.4046C43.4901 32.8738 43.6082 33.3961 43.5956 33.9235C43.5829 34.451 43.4399 34.9668 43.1796 35.4238C42.9192 35.8807 42.5499 36.2642 42.1054 36.539C41.6609 36.8139 41.1555 36.9713 40.6354 36.997L35.5154 37.2506C35.1764 37.2687 34.8525 37.3984 34.5929 37.6199C34.3333 37.8415 34.1521 38.1429 34.0769 38.4783L32.9425 43.5431C32.8275 44.0579 32.587 44.5353 32.2428 44.9314C31.8986 45.3276 31.4618 45.63 30.9725 45.8108C30.4831 45.9916 29.9568 46.045 29.4417 45.9663C28.9267 45.8876 28.4393 45.6792 28.0244 45.3602L23.9413 42.2191C23.6703 42.0111 23.3397 41.8986 22.9999 41.8986C22.66 41.8986 22.3294 42.0111 22.0584 42.2191L17.9761 45.3602C17.5611 45.6792 17.0738 45.8876 16.5587 45.9663C16.0437 46.045 15.5174 45.9916 15.028 45.8108C14.5386 45.63 14.1019 45.3276 13.7577 44.9314C13.4135 44.5353 13.1729 44.0579 13.058 43.5431L11.9228 38.4783C11.8479 38.1423 11.6663 37.8405 11.4059 37.6191C11.1456 37.3976 10.8208 37.2687 10.4812 37.2522L5.36041 36.9986C4.84032 36.9729 4.33489 36.8155 3.89041 36.5406C3.44592 36.2658 3.0766 35.8823 2.81625 35.4254C2.5559 34.9684 2.41286 34.4526 2.40021 33.9251C2.38757 33.3976 2.50573 32.8754 2.74387 32.4062L5.09143 27.7845C5.24703 27.4783 5.29934 27.1289 5.24034 26.7898C5.18134 26.4506 5.01429 26.1404 4.76475 25.9066L1.00289 22.3776C0.6208 22.0191 0.333565 21.5692 0.167477 21.0691C0.00139023 20.569 -0.0382442 20.0346 0.0522034 19.515C0.142651 18.9954 0.36029 18.507 0.685197 18.0947C1.0101 17.6823 1.4319 17.3591 1.91197 17.1547L6.6375 15.1425C6.9507 15.0088 7.21221 14.775 7.38223 14.4768C7.55225 14.1786 7.62146 13.8323 7.57932 13.4906L6.93533 8.33725C6.87044 7.81442 6.93584 7.28345 7.12555 6.79282C7.31526 6.30219 7.62324 5.86753 8.02137 5.52852C8.4195 5.18952 8.8951 4.95698 9.40473 4.85213C9.91437 4.74728 10.4418 4.77346 10.9389 4.92829L15.8359 6.46568C16.1609 6.56748 16.5098 6.55882 16.8295 6.44101C17.1492 6.32319 17.4221 6.10269 17.6065 5.81312Z" fill="url(#paint0_linear_629_24589)"></path>
  <path d="M12.732 18.0496C12.732 18.5165 13.2286 18.7448 14.0574 18.9005C15.6549 19.2023 16.341 19.6597 16.341 20.8574C16.341 21.9832 15.3665 22.8056 13.7682 22.8056C13.1483 22.8145 12.5363 22.6637 11.9897 22.3671C11.4572 22.074 11.0596 21.5771 10.7891 20.885L12.0077 20.1076C12.2696 21.0501 12.9378 21.5257 13.8134 21.5257C14.4628 21.5257 14.8963 21.2966 14.8963 20.9032C14.8963 20.4647 14.6164 20.2451 13.4929 20.08C12.1574 19.888 11.2818 19.2481 11.2818 18.0314C11.2818 17.0344 12.1932 16.2207 13.6286 16.2207C14.8293 16.2207 15.7048 16.769 16.0658 17.8213L14.8963 18.507C14.6702 17.7755 14.264 17.4555 13.5873 17.4555C13.0711 17.4555 12.732 17.7115 12.732 18.0496Z" fill="#FCFCFC"></path>
  <path d="M19.1723 16.3118H21.2485L23.731 22.715H22.1514L21.6641 21.3885H18.7567L18.2671 22.715H16.6875L19.1723 16.3118ZM21.176 20.062L20.21 17.4463L19.2448 20.062H21.176Z" fill="#FCFCFC"></path>
  <path d="M28.0185 16.3118H29.5888L27.2599 22.715H25.1658L22.8369 16.3118H24.4079L26.2128 21.59L28.0185 16.3118Z" fill="#FCFCFC"></path>
  <path d="M35.1221 16.3118V17.6382H31.6822V18.7814H34.8508V20.1079H31.6822V21.3885H35.2117V22.715H30.2383V16.3118H35.1221Z" fill="#FCFCFC"></path>
  <path d="M20.9182 34.362H19.8345V33.5198C18.6704 33.3555 17.8853 32.7337 17.4697 31.6451L18.6883 30.9412C18.8778 31.5993 19.2567 32.0204 19.8345 32.1942V30.7761C18.6883 30.5296 17.9633 29.8984 17.9633 28.7915C17.9612 28.5722 18.0042 28.3548 18.0896 28.1532C18.1749 27.9517 18.3008 27.7703 18.4591 27.6207C18.7936 27.2913 19.2536 27.0898 19.8313 27.0077V26.1758H20.9182V27.0353C21.8117 27.1933 22.4526 27.7305 22.7504 28.5806L21.577 29.1937C21.4328 28.7457 21.216 28.4439 20.9182 28.3065V29.6969C22.3894 29.9987 23.0233 30.4561 23.0233 31.6174C23.0233 32.6445 22.2288 33.3918 20.9182 33.5388V34.362ZM19.8345 28.2425C19.5366 28.3215 19.3565 28.5443 19.3565 28.8097C19.3565 29.0562 19.5187 29.2577 19.8345 29.3951V28.2425ZM20.9182 30.9862V32.2503C21.3509 32.1768 21.6129 31.9666 21.6129 31.6648C21.6098 31.3338 21.4297 31.1308 20.9182 30.9862Z" fill="#FCFCFC"></path>
  <path d="M28.2474 28.3524H25.2504C25.2524 28.6893 25.2284 29.0258 25.1787 29.3589C25.5057 29.1161 25.9016 28.9875 26.3069 28.9923C27.5543 28.9923 28.5359 29.7705 28.5359 31.1878C28.5359 32.6051 27.6159 33.5658 26.0808 33.5658C25.4399 33.5658 24.8988 33.4015 24.4474 33.0815C23.996 32.7615 23.7254 32.2852 23.6436 31.6547L24.9526 31.2795C25.0516 31.9289 25.4578 32.2852 26.0808 32.2852C26.7583 32.2852 27.1824 31.8743 27.1824 31.2795C27.1824 30.6664 26.7396 30.2271 26.0808 30.2271C25.5662 30.2271 25.2231 30.4562 25.043 30.9137L23.734 30.5937C23.8424 29.9253 23.9149 29.3297 23.9507 28.8004C23.9866 28.271 24.0045 27.6943 24.0045 27.0718H28.2474V28.3524Z" fill="#FCFCFC"></path>
  </g>
  <defs>
  <linearGradient id="paint0_linear_629_24589" x1="35.0265" y1="3.74088" x2="11.5679" y2="43.8389" gradientUnits="userSpaceOnUse">
  <stop stop-color="#5B00ED"></stop>
  <stop offset="1" stop-color="#EF2AC1"></stop>
  </linearGradient>
  <clipPath id="clip0_629_24589">
  <rect width="46" height="46" fill="white"></rect>
  </clipPath>
  </defs>
</svg>