<svg width="932" height="451" viewBox="0 0 932 451" fill="none" xmlns="http://www.w3.org/2000/svg">
<path d="M864.755 360.444C821.968 341.41 794.864 313.089 782.987 276.392C771.415 240.762 748.27 210.918 706.854 190.666C677.771 176.505 654.931 155.797 639.247 132.195C621.736 106.158 619.3 76.1611 595.242 52.5597C565.245 23.1722 518.043 0.484347 468.403 0.0275453C418.155 -0.429256 367.298 24.9994 337.149 54.5392C312.786 78.1406 310.35 107.985 292.992 134.175C277.308 157.624 254.468 178.332 225.385 192.646C183.968 212.897 160.824 242.741 149.252 278.372C137.375 315.068 110.271 343.39 67.4841 362.423C-3.92917 394.095 0.638843 450.738 0.638843 450.738L931.448 448.759C931.6 448.759 936.168 392.268 864.755 360.444Z" fill="url(#paint0_linear)"/>
<defs>
<linearGradient id="paint0_linear" x1="466.123" y1="7.67425" x2="466.123" y2="285.516" gradientUnits="userSpaceOnUse">
<stop stop-color="#7CA1D4"/>
<stop offset="1" stop-color="#3F0791"/>
</linearGradient>
</defs>
</svg>
