<svg width="248" height="304" viewBox="0 0 248 304" fill="none" xmlns="http://www.w3.org/2000/svg">
<path d="M202.628 242.608C173.902 229.829 155.705 210.814 147.731 186.177C139.961 162.255 124.423 142.218 96.6161 128.622C77.0902 119.114 61.7558 105.211 51.2261 89.3654C39.4697 71.8841 37.834 51.7449 21.6818 35.8993C1.54254 16.169 -30.1487 0.936735 -63.4755 0.630046C-97.2113 0.323357 -131.356 17.3957 -151.597 37.2283C-167.954 53.0739 -169.59 73.1109 -181.244 90.6944C-191.774 106.438 -207.108 120.341 -226.634 129.951C-254.441 143.547 -269.979 163.584 -277.749 187.506C-285.723 212.143 -303.92 231.158 -332.646 243.937C-380.592 265.2 -377.525 303.23 -377.525 303.23L247.405 301.901C247.507 301.901 250.574 263.974 202.628 242.608Z" fill="url(#paint0_linear)"/>
<defs>
<linearGradient id="paint0_linear" x1="-65.0066" y1="5.76392" x2="-65.0066" y2="192.303" gradientUnits="userSpaceOnUse">
<stop stop-color="#7CA1D4"/>
<stop offset="1" stop-color="#3F0791"/>
</linearGradient>
</defs>
</svg>
