<svg class="icon icon-thumb" width="24" height="28" viewBox="0 0 24 28" fill="none" xmlns="http://www.w3.org/2000/svg">
  <g clip-path="url(#clip0_629_24548)">
  <path d="M22.2002 19.5001C23.1002 18.7001 23.5002 17.3001 23.2002 16.2001C23.1002 15.6001 22.7001 15.1001 22.3001 14.8001C23.0002 13.7001 23.0002 12.4001 22.2002 11.2001C21.3002 9.8001 19.4002 9.5001 17.5002 9.4001C16.1002 9.4001 14.6001 9.5001 13.2001 9.7001C13.6001 7.3001 13.2001 4.8001 11.9001 2.7001C10.3001 0.700101 8.30015 -0.299899 6.90015 0.100101C5.90015 0.400101 4.70015 1.2001 5.30015 3.6001C5.50015 4.4001 5.80015 5.2001 6.20015 5.9001C7.20015 8.0001 6.60015 10.5001 4.80015 11.9001L2.40015 12.5001C1.30015 12.9001 -0.39985 14.3001 0.000149786 19.2001C0.30015 22.6001 1.00015 24.1001 1.60015 24.8001C1.90015 25.3001 2.40015 25.6001 3.00015 25.8001H3.10015C4.20015 25.8001 5.40015 25.7001 6.50015 25.4001C7.10015 25.8001 7.70015 26.2001 8.40015 26.4001C9.20015 26.7001 10.1002 26.8001 11.0001 26.8001C11.6002 26.8001 12.2001 26.7001 12.8001 26.6001C13.9002 27.1001 15.0002 27.4001 16.2002 27.4001C16.5002 27.4001 16.7002 27.4001 17.0002 27.4001C18.4002 27.3001 19.7002 26.9001 21.0002 26.1001C21.5002 25.7001 21.7001 25.2001 21.8001 24.6001C21.8001 24.2001 21.7002 23.7001 21.5002 23.3001C21.9002 23.0001 22.2001 22.8001 22.4002 22.4001C22.5002 22.3001 22.5002 22.2001 22.6002 22.0001C22.8002 21.4001 22.9002 20.8001 22.6002 20.2001C22.6002 20.0001 22.4002 19.8001 22.2002 19.5001Z" fill="#FFCA4F"></path>
  <path d="M22.2002 19.5001C23.1002 18.7001 23.5002 17.3001 23.2002 16.2001C23.1002 15.6001 22.7001 15.1001 22.3001 14.8001C23.0001 13.7001 23.0002 12.4001 22.2002 11.2001C21.3002 9.8001 19.4002 9.5001 17.5002 9.4001C16.1002 9.4001 14.6001 9.5001 13.2001 9.7001C13.6001 7.3001 13.2001 4.8001 11.9001 2.7001C10.3001 0.700101 8.30015 -0.299899 6.90015 0.100101C5.90015 0.400101 4.70015 1.2001 5.30015 3.6001C5.50015 4.4001 5.80015 5.2001 6.20015 5.9001C7.20015 8.0001 6.60015 10.5001 4.80015 11.9001L2.40015 12.5001C1.30015 12.9001 -0.39985 14.3001 0.000149786 19.2001C0.30015 22.6001 1.00015 24.1001 1.60015 24.8001C1.90015 25.3001 2.40015 25.6001 3.00015 25.8001H3.10015C4.20015 25.8001 5.40015 25.7001 6.50015 25.4001C7.10015 25.8001 7.70015 26.2001 8.40015 26.4001C9.20015 26.7001 10.1001 26.8001 11.0001 26.8001C11.6001 26.8001 12.2001 26.7001 12.8001 26.6001C13.9001 27.1001 15.0002 27.4001 16.2002 27.4001C16.5002 27.4001 16.7002 27.4001 17.0002 27.4001C18.4002 27.3001 19.7002 26.9001 21.0002 26.1001C21.5002 25.7001 21.7001 25.2001 21.8001 24.6001C21.8001 24.2001 21.7002 23.7001 21.5002 23.3001C21.9002 23.0001 22.2002 22.8001 22.4002 22.4001C22.5002 22.3001 22.5002 22.2001 22.6002 22.0001C22.8002 21.4001 22.9002 20.8001 22.6002 20.2001C22.6002 20.0001 22.4002 19.8001 22.2002 19.5001ZM21.4002 21.6001C21.4002 21.7001 21.3001 21.7001 21.3001 21.8001C20.8001 22.6001 18.8002 23.3001 17.4002 23.5001C15.9002 23.7001 13.5001 23.5001 12.9001 22.6001C12.7001 22.3001 12.7001 22.0001 12.9001 21.7001C13.5001 21.9001 14.2001 22.0001 14.9001 22.0001C15.7001 22.0001 16.5002 21.9001 17.2002 21.8001C18.5002 21.5001 19.8002 21.1001 21.0002 20.4001C21.5002 20.5001 21.7002 21.1001 21.4002 21.6001ZM21.4002 15.8001C21.7002 15.9001 21.9002 16.1001 22.0002 16.5001C22.2002 17.2001 21.9002 18.2001 21.4002 18.6001C20.1002 19.5001 18.6002 20.1001 17.1002 20.4001C15.0002 20.7001 13.6001 20.6001 12.8001 20.1001C12.6001 20.0001 12.4001 19.7001 12.4001 19.5001C12.4001 19.3001 12.4002 19.0001 12.6002 18.8001C12.7002 18.6001 13.0001 18.5001 13.2001 18.4001C13.6001 18.4001 14.0001 18.4001 14.4001 18.4001C16.8001 18.2001 19.1002 17.4001 21.2002 16.1001C21.2002 15.9001 21.3002 15.9001 21.4002 15.8001ZM8.90015 25.1001C7.40015 24.7001 6.30015 23.4001 6.00015 21.9001L4.70015 22.1001C4.80015 22.9001 5.10015 23.6001 5.60015 24.2001C4.80015 24.3001 4.10015 24.4001 3.30015 24.4001C3.10015 24.3001 2.90015 24.2001 2.70015 24.0001C2.40015 23.6001 1.60015 22.4001 1.30015 19.0001C1.10015 16.1001 1.60015 14.1001 2.70015 13.7001L5.30015 13.1001L5.50015 13.0001C7.90015 11.2001 8.70015 8.0001 7.40015 5.4001C7.10015 4.7001 6.80015 4.0001 6.60015 3.3001C6.20015 1.6001 6.90015 1.5001 7.30015 1.3001C8.00015 1.1001 9.60015 1.8001 10.9001 3.4001C12.2001 5.4001 12.5001 7.9001 11.8001 10.2001L11.5001 11.2001L12.5001 11.0001C14.2001 10.7001 15.9002 10.6001 17.5002 10.5001C19.6002 10.6001 20.6002 10.9001 21.1002 11.7001C21.8002 12.9001 21.6001 13.9001 20.3001 14.8001C18.4001 16.0001 16.3002 16.7001 14.1002 16.9001C12.5002 17.1001 12.2001 16.7001 12.0001 16.4001C11.8001 15.6001 12.2001 14.8001 12.9001 14.5001C14.4001 13.8001 16.0002 13.3001 17.6002 12.8001L17.2002 11.5001C15.5002 12.0001 13.9001 12.6001 12.3001 13.2001C10.9001 13.8001 10.2002 15.3001 10.6002 16.8001C10.8002 17.2001 11.0001 17.5001 11.3001 17.7001L11.2001 17.8001C10.8001 18.3001 10.7001 18.9001 10.8001 19.4001C10.9001 19.9001 11.1001 20.4001 11.5001 20.7001C11.1001 21.4001 11.1002 22.3001 11.6002 22.9001C11.6002 23.0001 11.7001 23.0001 11.8001 23.1001C11.6001 23.3001 11.5001 23.5001 11.4001 23.8001C11.3001 24.2001 11.4001 24.6001 11.5001 25.0001C10.8001 25.5001 9.90015 25.4001 8.90015 25.1001ZM20.5002 24.5001C20.5002 24.7001 20.4001 24.9001 20.3001 25.0001C19.3001 25.6001 18.1002 26.0001 16.9002 26.0001C15.6002 26.1001 14.4001 25.9001 13.3001 25.3001C12.9001 25.0001 12.8001 24.6001 12.8001 24.4001C12.8001 24.4001 12.8001 24.2001 13.0001 24.2001C14.0001 24.7001 15.2001 24.8001 16.3001 24.8001C16.8001 24.8001 17.3002 24.8001 17.6002 24.7001C18.3002 24.6001 19.4002 24.3001 20.4002 23.9001C20.5002 24.1001 20.5002 24.3001 20.5002 24.5001Z" fill="#3F0791"></path>
  </g>
  <defs>
  <clipPath id="clip0_629_24548">
  <rect width="23.3" height="27.4" fill="white"></rect>
  </clipPath>
  </defs>
</svg>