<svg xmlns="http://www.w3.org/2000/svg" xmlns:xlink="http://www.w3.org/1999/xlink" viewBox="0 0 312.76 302.22"><defs><style>.cls-1{fill:#6600f4;}.cls-2{clip-path:url(#clip-path);}.cls-3{fill:url(#linear-gradient);}</style><clipPath id="clip-path" transform="translate(6.96 7.86)"><path class="cls-1" d="M188.37,1.21c-15.74,2.52-28.91,8.94-39,18.7-10-9.76-23.21-16.18-39-18.7A106.24,106.24,0,0,0,71.52,2.53a19,19,0,0,0,9.13,36.93,70.33,70.33,0,0,1,23.8-.69c13.63,2.18,21.92,8.94,26.05,21.06A19.08,19.08,0,0,0,131,62c-38.55-20.38-81.88-15.11-104.3-7a24.87,24.87,0,1,0,16.76,46.84C45.55,101,93.75,84.89,125.65,120c-16.67-7.33-33.52-10.24-50.41-8.61-42.63,4.11-67.5,35.46-70.2,39a24.87,24.87,0,0,0,39.67,30c.13-.17,14.11-17.48,35.3-19.52,15.69-1.54,32.73,5.6,50.72,21.09l0,0a24.76,24.76,0,0,0,17.63,8.24h2.07A24.79,24.79,0,0,0,168.09,182s0,0,0,0c18-15.49,35-22.63,50.71-21.09,21.19,2,35.18,19.35,35.31,19.52a24.87,24.87,0,0,0,39.66-30c-2.69-3.56-27.56-34.91-70.19-39-16.9-1.63-33.75,1.28-50.42,8.61,31.9-35.08,80.1-18.93,82.23-18.19a24.87,24.87,0,1,0,16.76-46.84c-22.43-8.1-65.76-13.37-104.3,7a19,19,0,0,0,.46-2.12c4.13-12.12,12.43-18.88,26-21.06a70.43,70.43,0,0,1,23.81.69,19,19,0,1,0,9.13-36.93A103.83,103.83,0,0,0,204,0a99.83,99.83,0,0,0-15.67,1.21"/></clipPath><linearGradient id="linear-gradient" x1="36.12" y1="237.71" x2="262.72" y2="237.71" gradientUnits="userSpaceOnUse"><stop offset="0" stop-color="#ff6b6b"/><stop offset="1" stop-color="#6510eb"/></linearGradient></defs><g id="Layer_2" data-name="Layer 2"><g id="Layer_1-2" data-name="Layer 1"><path class="cls-1" d="M188.37,1.21c-15.74,2.52-28.91,8.94-39,18.7-10-9.76-23.21-16.18-39-18.7A106.24,106.24,0,0,0,71.52,2.53a19,19,0,0,0,9.13,36.93,70.33,70.33,0,0,1,23.8-.69c13.63,2.18,21.92,8.94,26.05,21.06A19.08,19.08,0,0,0,131,62c-38.55-20.38-81.88-15.11-104.3-7a24.87,24.87,0,1,0,16.76,46.84C45.55,101,93.75,84.89,125.65,120c-16.67-7.33-33.52-10.24-50.41-8.61-42.63,4.11-67.5,35.46-70.2,39a24.87,24.87,0,0,0,39.67,30c.13-.17,14.11-17.48,35.3-19.52,15.69-1.54,32.73,5.6,50.72,21.09l0,0a24.76,24.76,0,0,0,17.63,8.24h2.07A24.79,24.79,0,0,0,168.09,182s0,0,0,0c18-15.49,35-22.63,50.71-21.09,21.19,2,35.18,19.35,35.31,19.52a24.87,24.87,0,0,0,39.66-30c-2.69-3.56-27.56-34.91-70.19-39-16.9-1.63-33.75,1.28-50.42,8.61,31.9-35.08,80.1-18.93,82.23-18.19a24.87,24.87,0,1,0,16.76-46.84c-22.43-8.1-65.76-13.37-104.3,7a19,19,0,0,0,.46-2.12c4.13-12.12,12.43-18.88,26-21.06a70.43,70.43,0,0,1,23.81.69,19,19,0,1,0,9.13-36.93A103.83,103.83,0,0,0,204,0a99.83,99.83,0,0,0-15.67,1.21" transform="translate(6.96 7.86)"/><g class="cls-2"><rect class="cls-1" x="-5.08" y="-4.9" width="308.99" height="198.09" transform="translate(5.17 10.77) rotate(-1.11)"/></g><path class="cls-3" d="M262.72,294.36a113.3,113.3,0,0,0-226.6,0Z" transform="translate(6.96 7.86)"/></g></g></svg>